# xmcd CD database file
#
# Track frame offsets:
#	150
#	15111
#	28264
#	39595
#	53834
#	68052
#	81648
#	94252
#	108467
#	121627
#	133266
#	145082
#	157331
#	170634
#	184468
#	198889
#	212712
#	225037
#	240306
#	253159
#
# Disc length: 3556 seconds
#
# Revision: 3
# Processed by: cddbd v1.5.2PL0 Copyright (c) Steve Scherf et al.
# Submitted via: CDex 1.70beta2
#
DISCID=160de214
DTITLE=Ella Fitzgerald - A-Tisket, A-Tasket
DYEAR=2003
DGENRE=Jazz
TTITLE0=He's My Guy
TTITLE1=Cow Cow Boogie
TTITLE2=Flying Home
TTITLE3=Darktown Strutters Ball
TTITLE4=Into Each Life Some Rain Must Fall
TTITLE5=Jim
TTITLE6=Make Love To Me
TTITLE7=My Heart Belongs To Daddy
TTITLE8=This Love Of Mine
TTITLE9=I'll Chase The Blues Away
TTITLE10=A-Tisket, A-Tasket
TTITLE11=Mama Come Home
TTITLE12=Shine
TTITLE13=My Man
TTITLE14=That's All, Brother
TTITLE15='tain't What You Do (It's The Way That Cha Do It)
TTITLE16=My Last Affair
TTITLE17=One Side Of Me
TTITLE18=Saving Myself For You
TTITLE19=My Melancholy Baby
EXTD=YEAR: 2003
EXTT0=
EXTT1=
EXTT2=
EXTT3=
EXTT4=
EXTT5=
EXTT6=
EXTT7=
EXTT8=
EXTT9=
EXTT10=
EXTT11=
EXTT12=
EXTT13=
EXTT14=
EXTT15=
EXTT16=
EXTT17=
EXTT18=
EXTT19=
PLAYORDER=
